<mxfile host="app.diagrams.net" agent="Mozilla/5.0 (Windows NT 10.0; Win64; x64) AppleWebKit/537.36 (KHTML, like Gecko) Chrome/131.0.0.0 Safari/537.36" version="25.0.3">
  <diagram id="C5RBs43oDa-KdzZeNtuy" name="Page-1">
    <mxGraphModel dx="1619" dy="1145" grid="1" gridSize="10" guides="1" tooltips="1" connect="1" arrows="1" fold="1" page="1" pageScale="1" pageWidth="827" pageHeight="1169" math="0" shadow="0">
      <root>
        <mxCell id="WIyWlLk6GJQsqaUBKTNV-0" />
        <mxCell id="WIyWlLk6GJQsqaUBKTNV-1" parent="WIyWlLk6GJQsqaUBKTNV-0" />
        <mxCell id="4wCvddNxAp3TrLOBEBOn-22" value="" style="edgeStyle=orthogonalEdgeStyle;rounded=0;orthogonalLoop=1;jettySize=auto;html=1;" edge="1" parent="WIyWlLk6GJQsqaUBKTNV-1" source="4wCvddNxAp3TrLOBEBOn-0" target="4wCvddNxAp3TrLOBEBOn-2">
          <mxGeometry relative="1" as="geometry" />
        </mxCell>
        <mxCell id="4wCvddNxAp3TrLOBEBOn-0" value="Начало" style="ellipse;whiteSpace=wrap;html=1;" vertex="1" parent="WIyWlLk6GJQsqaUBKTNV-1">
          <mxGeometry x="350" y="450" width="120" height="80" as="geometry" />
        </mxCell>
        <mxCell id="4wCvddNxAp3TrLOBEBOn-23" style="edgeStyle=orthogonalEdgeStyle;rounded=0;orthogonalLoop=1;jettySize=auto;html=1;entryX=0.5;entryY=0;entryDx=0;entryDy=0;" edge="1" parent="WIyWlLk6GJQsqaUBKTNV-1" source="4wCvddNxAp3TrLOBEBOn-2" target="4wCvddNxAp3TrLOBEBOn-3">
          <mxGeometry relative="1" as="geometry">
            <mxPoint x="410" y="670" as="targetPoint" />
          </mxGeometry>
        </mxCell>
        <mxCell id="4wCvddNxAp3TrLOBEBOn-36" value="{" style="edgeLabel;html=1;align=center;verticalAlign=middle;resizable=0;points=[];" vertex="1" connectable="0" parent="4wCvddNxAp3TrLOBEBOn-23">
          <mxGeometry x="-0.4286" relative="1" as="geometry">
            <mxPoint x="-20" as="offset" />
          </mxGeometry>
        </mxCell>
        <mxCell id="4wCvddNxAp3TrLOBEBOn-2" value="void IterationMethod()" style="shape=process;whiteSpace=wrap;html=1;backgroundOutline=1;" vertex="1" parent="WIyWlLk6GJQsqaUBKTNV-1">
          <mxGeometry x="335" y="570" width="150" height="50" as="geometry" />
        </mxCell>
        <mxCell id="4wCvddNxAp3TrLOBEBOn-24" style="edgeStyle=orthogonalEdgeStyle;rounded=0;orthogonalLoop=1;jettySize=auto;html=1;entryX=0.5;entryY=0;entryDx=0;entryDy=0;" edge="1" parent="WIyWlLk6GJQsqaUBKTNV-1" source="4wCvddNxAp3TrLOBEBOn-3" target="4wCvddNxAp3TrLOBEBOn-4">
          <mxGeometry relative="1" as="geometry" />
        </mxCell>
        <mxCell id="4wCvddNxAp3TrLOBEBOn-37" value="{" style="edgeLabel;html=1;align=center;verticalAlign=middle;resizable=0;points=[];" vertex="1" connectable="0" parent="4wCvddNxAp3TrLOBEBOn-24">
          <mxGeometry x="-0.5" y="-3" relative="1" as="geometry">
            <mxPoint x="-17" as="offset" />
          </mxGeometry>
        </mxCell>
        <mxCell id="4wCvddNxAp3TrLOBEBOn-38" value="1" style="edgeLabel;html=1;align=center;verticalAlign=middle;resizable=0;points=[];" vertex="1" connectable="0" parent="4wCvddNxAp3TrLOBEBOn-24">
          <mxGeometry x="-0.3" y="4" relative="1" as="geometry">
            <mxPoint x="6" y="-4" as="offset" />
          </mxGeometry>
        </mxCell>
        <mxCell id="4wCvddNxAp3TrLOBEBOn-26" style="edgeStyle=orthogonalEdgeStyle;rounded=0;orthogonalLoop=1;jettySize=auto;html=1;entryX=0.5;entryY=0;entryDx=0;entryDy=0;" edge="1" parent="WIyWlLk6GJQsqaUBKTNV-1" source="4wCvddNxAp3TrLOBEBOn-3" target="4wCvddNxAp3TrLOBEBOn-8">
          <mxGeometry relative="1" as="geometry">
            <Array as="points">
              <mxPoint x="810" y="740" />
              <mxPoint x="810" y="1200" />
              <mxPoint x="410" y="1200" />
            </Array>
          </mxGeometry>
        </mxCell>
        <mxCell id="4wCvddNxAp3TrLOBEBOn-45" value="0" style="edgeLabel;html=1;align=center;verticalAlign=middle;resizable=0;points=[];" vertex="1" connectable="0" parent="4wCvddNxAp3TrLOBEBOn-26">
          <mxGeometry x="-0.8447" y="-2" relative="1" as="geometry">
            <mxPoint x="-64" y="-22" as="offset" />
          </mxGeometry>
        </mxCell>
        <mxCell id="4wCvddNxAp3TrLOBEBOn-3" value="while (x0 &amp;gt; 1 || x0 &amp;lt; 0)" style="rhombus;whiteSpace=wrap;html=1;" vertex="1" parent="WIyWlLk6GJQsqaUBKTNV-1">
          <mxGeometry x="325" y="700" width="170" height="80" as="geometry" />
        </mxCell>
        <mxCell id="4wCvddNxAp3TrLOBEBOn-31" style="edgeStyle=orthogonalEdgeStyle;rounded=0;orthogonalLoop=1;jettySize=auto;html=1;entryX=0.5;entryY=0;entryDx=0;entryDy=0;" edge="1" parent="WIyWlLk6GJQsqaUBKTNV-1" source="4wCvddNxAp3TrLOBEBOn-4" target="4wCvddNxAp3TrLOBEBOn-5">
          <mxGeometry relative="1" as="geometry" />
        </mxCell>
        <mxCell id="4wCvddNxAp3TrLOBEBOn-4" value="&lt;div&gt;cout &amp;lt;&amp;lt; &quot;Введите произвольную точку на отрезке [0;1]&quot; &amp;lt;&amp;lt; endl;&lt;/div&gt;&lt;div&gt;cin &amp;gt;&amp;gt; x0;&lt;/div&gt;" style="shape=parallelogram;perimeter=parallelogramPerimeter;whiteSpace=wrap;html=1;fixedSize=1;" vertex="1" parent="WIyWlLk6GJQsqaUBKTNV-1">
          <mxGeometry x="210" y="820" width="400" height="40" as="geometry" />
        </mxCell>
        <mxCell id="4wCvddNxAp3TrLOBEBOn-32" style="edgeStyle=orthogonalEdgeStyle;rounded=0;orthogonalLoop=1;jettySize=auto;html=1;entryX=0.5;entryY=0;entryDx=0;entryDy=0;" edge="1" parent="WIyWlLk6GJQsqaUBKTNV-1" source="4wCvddNxAp3TrLOBEBOn-5" target="4wCvddNxAp3TrLOBEBOn-6">
          <mxGeometry relative="1" as="geometry">
            <Array as="points">
              <mxPoint x="80" y="945" />
            </Array>
          </mxGeometry>
        </mxCell>
        <mxCell id="4wCvddNxAp3TrLOBEBOn-39" value="1" style="edgeLabel;html=1;align=center;verticalAlign=middle;resizable=0;points=[];" vertex="1" connectable="0" parent="4wCvddNxAp3TrLOBEBOn-32">
          <mxGeometry x="-0.6262" y="2" relative="1" as="geometry">
            <mxPoint x="-2" y="-17" as="offset" />
          </mxGeometry>
        </mxCell>
        <mxCell id="4wCvddNxAp3TrLOBEBOn-40" value="{" style="edgeLabel;html=1;align=center;verticalAlign=middle;resizable=0;points=[];" vertex="1" connectable="0" parent="4wCvddNxAp3TrLOBEBOn-32">
          <mxGeometry x="0.215" y="-3" relative="1" as="geometry">
            <mxPoint x="-17" as="offset" />
          </mxGeometry>
        </mxCell>
        <mxCell id="4wCvddNxAp3TrLOBEBOn-33" style="edgeStyle=orthogonalEdgeStyle;rounded=0;orthogonalLoop=1;jettySize=auto;html=1;" edge="1" parent="WIyWlLk6GJQsqaUBKTNV-1" source="4wCvddNxAp3TrLOBEBOn-5">
          <mxGeometry relative="1" as="geometry">
            <mxPoint x="410" y="1130" as="targetPoint" />
            <Array as="points">
              <mxPoint x="740" y="945" />
              <mxPoint x="740" y="1130" />
            </Array>
          </mxGeometry>
        </mxCell>
        <mxCell id="4wCvddNxAp3TrLOBEBOn-41" value="0" style="edgeLabel;html=1;align=center;verticalAlign=middle;resizable=0;points=[];" vertex="1" connectable="0" parent="4wCvddNxAp3TrLOBEBOn-33">
          <mxGeometry x="-0.9138" y="1" relative="1" as="geometry">
            <mxPoint y="-14" as="offset" />
          </mxGeometry>
        </mxCell>
        <mxCell id="4wCvddNxAp3TrLOBEBOn-43" value="}" style="edgeLabel;html=1;align=center;verticalAlign=middle;resizable=0;points=[];" vertex="1" connectable="0" parent="4wCvddNxAp3TrLOBEBOn-33">
          <mxGeometry x="-0.2316" y="-3" relative="1" as="geometry">
            <mxPoint x="13" as="offset" />
          </mxGeometry>
        </mxCell>
        <mxCell id="4wCvddNxAp3TrLOBEBOn-5" value="if (fabs((2*x0*cos(sqrt(1-((2*pow(x0,2))/5))) / (5* sqrt(1 - ((2 * pow(x0, 2)) / 5))))*-1) &amp;gt; 1)" style="rhombus;whiteSpace=wrap;html=1;" vertex="1" parent="WIyWlLk6GJQsqaUBKTNV-1">
          <mxGeometry x="122" y="910" width="576" height="70" as="geometry" />
        </mxCell>
        <mxCell id="4wCvddNxAp3TrLOBEBOn-34" style="edgeStyle=orthogonalEdgeStyle;rounded=0;orthogonalLoop=1;jettySize=auto;html=1;entryX=0.5;entryY=0;entryDx=0;entryDy=0;" edge="1" parent="WIyWlLk6GJQsqaUBKTNV-1" source="4wCvddNxAp3TrLOBEBOn-6" target="4wCvddNxAp3TrLOBEBOn-7">
          <mxGeometry relative="1" as="geometry" />
        </mxCell>
        <mxCell id="4wCvddNxAp3TrLOBEBOn-6" value="cout &amp;lt;&amp;lt; &quot;Сходимость не соблюдается, выберите другое значение&quot;;" style="shape=parallelogram;perimeter=parallelogramPerimeter;whiteSpace=wrap;html=1;fixedSize=1;" vertex="1" parent="WIyWlLk6GJQsqaUBKTNV-1">
          <mxGeometry x="-130" y="1010" width="420" height="30" as="geometry" />
        </mxCell>
        <mxCell id="4wCvddNxAp3TrLOBEBOn-25" style="edgeStyle=orthogonalEdgeStyle;rounded=0;orthogonalLoop=1;jettySize=auto;html=1;" edge="1" parent="WIyWlLk6GJQsqaUBKTNV-1">
          <mxGeometry relative="1" as="geometry">
            <mxPoint x="410" y="680" as="targetPoint" />
            <mxPoint x="410" y="1130" as="sourcePoint" />
            <Array as="points">
              <mxPoint x="410" y="1180" />
              <mxPoint x="-150" y="1180" />
              <mxPoint x="-150" y="680" />
            </Array>
          </mxGeometry>
        </mxCell>
        <mxCell id="4wCvddNxAp3TrLOBEBOn-44" value="}" style="edgeLabel;html=1;align=center;verticalAlign=middle;resizable=0;points=[];" vertex="1" connectable="0" parent="4wCvddNxAp3TrLOBEBOn-25">
          <mxGeometry x="-0.9581" y="-2" relative="1" as="geometry">
            <mxPoint x="12" y="15" as="offset" />
          </mxGeometry>
        </mxCell>
        <mxCell id="4wCvddNxAp3TrLOBEBOn-35" style="edgeStyle=orthogonalEdgeStyle;rounded=0;orthogonalLoop=1;jettySize=auto;html=1;" edge="1" parent="WIyWlLk6GJQsqaUBKTNV-1" source="4wCvddNxAp3TrLOBEBOn-7">
          <mxGeometry relative="1" as="geometry">
            <mxPoint x="410" y="1130" as="targetPoint" />
            <Array as="points">
              <mxPoint x="80" y="1130" />
              <mxPoint x="350" y="1130" />
            </Array>
          </mxGeometry>
        </mxCell>
        <mxCell id="4wCvddNxAp3TrLOBEBOn-42" value="}" style="edgeLabel;html=1;align=center;verticalAlign=middle;resizable=0;points=[];" vertex="1" connectable="0" parent="4wCvddNxAp3TrLOBEBOn-35">
          <mxGeometry x="-0.9543" y="1" relative="1" as="geometry">
            <mxPoint x="9" as="offset" />
          </mxGeometry>
        </mxCell>
        <mxCell id="4wCvddNxAp3TrLOBEBOn-7" value="x0 = 2;" style="rounded=0;whiteSpace=wrap;html=1;" vertex="1" parent="WIyWlLk6GJQsqaUBKTNV-1">
          <mxGeometry x="35" y="1080" width="90" height="30" as="geometry" />
        </mxCell>
        <mxCell id="4wCvddNxAp3TrLOBEBOn-11" value="" style="edgeStyle=orthogonalEdgeStyle;rounded=0;orthogonalLoop=1;jettySize=auto;html=1;" edge="1" parent="WIyWlLk6GJQsqaUBKTNV-1" source="4wCvddNxAp3TrLOBEBOn-8" target="4wCvddNxAp3TrLOBEBOn-10">
          <mxGeometry relative="1" as="geometry" />
        </mxCell>
        <mxCell id="4wCvddNxAp3TrLOBEBOn-46" value="{" style="edgeLabel;html=1;align=center;verticalAlign=middle;resizable=0;points=[];" vertex="1" connectable="0" parent="4wCvddNxAp3TrLOBEBOn-11">
          <mxGeometry x="0.5333" y="-1" relative="1" as="geometry">
            <mxPoint x="-19" as="offset" />
          </mxGeometry>
        </mxCell>
        <mxCell id="4wCvddNxAp3TrLOBEBOn-47" value="1" style="edgeLabel;html=1;align=center;verticalAlign=middle;resizable=0;points=[];" vertex="1" connectable="0" parent="4wCvddNxAp3TrLOBEBOn-11">
          <mxGeometry x="0.6333" relative="1" as="geometry">
            <mxPoint x="20" as="offset" />
          </mxGeometry>
        </mxCell>
        <mxCell id="4wCvddNxAp3TrLOBEBOn-17" value="" style="edgeStyle=orthogonalEdgeStyle;rounded=0;orthogonalLoop=1;jettySize=auto;html=1;" edge="1" parent="WIyWlLk6GJQsqaUBKTNV-1" source="4wCvddNxAp3TrLOBEBOn-8" target="4wCvddNxAp3TrLOBEBOn-16">
          <mxGeometry relative="1" as="geometry">
            <Array as="points">
              <mxPoint x="580" y="1340" />
              <mxPoint x="580" y="1660" />
              <mxPoint x="410" y="1660" />
            </Array>
          </mxGeometry>
        </mxCell>
        <mxCell id="4wCvddNxAp3TrLOBEBOn-48" value="0" style="edgeLabel;html=1;align=center;verticalAlign=middle;resizable=0;points=[];" vertex="1" connectable="0" parent="4wCvddNxAp3TrLOBEBOn-17">
          <mxGeometry x="-0.8369" y="1" relative="1" as="geometry">
            <mxPoint x="-33" y="-19" as="offset" />
          </mxGeometry>
        </mxCell>
        <mxCell id="4wCvddNxAp3TrLOBEBOn-8" value="do" style="rhombus;whiteSpace=wrap;html=1;" vertex="1" parent="WIyWlLk6GJQsqaUBKTNV-1">
          <mxGeometry x="370" y="1300" width="80" height="80" as="geometry" />
        </mxCell>
        <mxCell id="4wCvddNxAp3TrLOBEBOn-13" value="" style="edgeStyle=orthogonalEdgeStyle;rounded=0;orthogonalLoop=1;jettySize=auto;html=1;" edge="1" parent="WIyWlLk6GJQsqaUBKTNV-1" source="4wCvddNxAp3TrLOBEBOn-10" target="4wCvddNxAp3TrLOBEBOn-12">
          <mxGeometry relative="1" as="geometry">
            <Array as="points">
              <mxPoint x="290" y="1440" />
            </Array>
          </mxGeometry>
        </mxCell>
        <mxCell id="4wCvddNxAp3TrLOBEBOn-50" value="1" style="edgeLabel;html=1;align=center;verticalAlign=middle;resizable=0;points=[];" vertex="1" connectable="0" parent="4wCvddNxAp3TrLOBEBOn-13">
          <mxGeometry x="0.08" y="2" relative="1" as="geometry">
            <mxPoint x="4" y="-22" as="offset" />
          </mxGeometry>
        </mxCell>
        <mxCell id="4wCvddNxAp3TrLOBEBOn-28" style="edgeStyle=orthogonalEdgeStyle;rounded=0;orthogonalLoop=1;jettySize=auto;html=1;" edge="1" parent="WIyWlLk6GJQsqaUBKTNV-1" source="4wCvddNxAp3TrLOBEBOn-10">
          <mxGeometry relative="1" as="geometry">
            <mxPoint x="410" y="1520" as="targetPoint" />
            <Array as="points">
              <mxPoint x="520" y="1440" />
              <mxPoint x="520" y="1520" />
            </Array>
          </mxGeometry>
        </mxCell>
        <mxCell id="4wCvddNxAp3TrLOBEBOn-51" value="0" style="edgeLabel;html=1;align=center;verticalAlign=middle;resizable=0;points=[];" vertex="1" connectable="0" parent="4wCvddNxAp3TrLOBEBOn-28">
          <mxGeometry x="-0.7462" y="2" relative="1" as="geometry">
            <mxPoint x="2" y="-18" as="offset" />
          </mxGeometry>
        </mxCell>
        <mxCell id="4wCvddNxAp3TrLOBEBOn-10" value="if (x1 != 2)" style="rhombus;whiteSpace=wrap;html=1;" vertex="1" parent="WIyWlLk6GJQsqaUBKTNV-1">
          <mxGeometry x="370" y="1400" width="80" height="80" as="geometry" />
        </mxCell>
        <mxCell id="4wCvddNxAp3TrLOBEBOn-15" value="" style="edgeStyle=orthogonalEdgeStyle;rounded=0;orthogonalLoop=1;jettySize=auto;html=1;" edge="1" parent="WIyWlLk6GJQsqaUBKTNV-1" source="4wCvddNxAp3TrLOBEBOn-12">
          <mxGeometry relative="1" as="geometry">
            <mxPoint x="410" y="1520" as="targetPoint" />
            <Array as="points">
              <mxPoint x="290" y="1520" />
            </Array>
          </mxGeometry>
        </mxCell>
        <mxCell id="4wCvddNxAp3TrLOBEBOn-12" value="x0 = x1;" style="whiteSpace=wrap;html=1;" vertex="1" parent="WIyWlLk6GJQsqaUBKTNV-1">
          <mxGeometry x="260" y="1460" width="70" height="40" as="geometry" />
        </mxCell>
        <mxCell id="4wCvddNxAp3TrLOBEBOn-27" style="edgeStyle=orthogonalEdgeStyle;rounded=0;orthogonalLoop=1;jettySize=auto;html=1;entryX=0;entryY=0.5;entryDx=0;entryDy=0;" edge="1" parent="WIyWlLk6GJQsqaUBKTNV-1" source="4wCvddNxAp3TrLOBEBOn-14" target="4wCvddNxAp3TrLOBEBOn-8">
          <mxGeometry relative="1" as="geometry">
            <Array as="points">
              <mxPoint x="410" y="1640" />
              <mxPoint x="220" y="1640" />
              <mxPoint x="220" y="1340" />
            </Array>
          </mxGeometry>
        </mxCell>
        <mxCell id="4wCvddNxAp3TrLOBEBOn-49" value="}" style="edgeLabel;html=1;align=center;verticalAlign=middle;resizable=0;points=[];" vertex="1" connectable="0" parent="4wCvddNxAp3TrLOBEBOn-27">
          <mxGeometry x="-0.9206" y="2" relative="1" as="geometry">
            <mxPoint x="8" y="13" as="offset" />
          </mxGeometry>
        </mxCell>
        <mxCell id="4wCvddNxAp3TrLOBEBOn-14" value="&amp;nbsp;x1 = sin(sqrt(1-0.4*pow(x0,2)));&lt;div&gt;out();&lt;/div&gt;" style="whiteSpace=wrap;html=1;" vertex="1" parent="WIyWlLk6GJQsqaUBKTNV-1">
          <mxGeometry x="310" y="1554" width="200" height="46" as="geometry" />
        </mxCell>
        <mxCell id="4wCvddNxAp3TrLOBEBOn-19" value="" style="edgeStyle=orthogonalEdgeStyle;rounded=0;orthogonalLoop=1;jettySize=auto;html=1;" edge="1" parent="WIyWlLk6GJQsqaUBKTNV-1" source="4wCvddNxAp3TrLOBEBOn-16" target="4wCvddNxAp3TrLOBEBOn-18">
          <mxGeometry relative="1" as="geometry" />
        </mxCell>
        <mxCell id="4wCvddNxAp3TrLOBEBOn-16" value="&amp;nbsp;cout &amp;lt;&amp;lt; &quot;Корень уравнения: &quot; &amp;lt;&amp;lt; setprecision(10) &amp;lt;&amp;lt; x1 &amp;lt;&amp;lt; endl &amp;lt;&amp;lt; endl;" style="shape=parallelogram;perimeter=parallelogramPerimeter;whiteSpace=wrap;html=1;fixedSize=1;" vertex="1" parent="WIyWlLk6GJQsqaUBKTNV-1">
          <mxGeometry x="195" y="1700" width="430" height="40" as="geometry" />
        </mxCell>
        <mxCell id="4wCvddNxAp3TrLOBEBOn-21" value="" style="edgeStyle=orthogonalEdgeStyle;rounded=0;orthogonalLoop=1;jettySize=auto;html=1;" edge="1" parent="WIyWlLk6GJQsqaUBKTNV-1" source="4wCvddNxAp3TrLOBEBOn-18" target="4wCvddNxAp3TrLOBEBOn-20">
          <mxGeometry relative="1" as="geometry" />
        </mxCell>
        <mxCell id="4wCvddNxAp3TrLOBEBOn-52" value="}" style="edgeLabel;html=1;align=center;verticalAlign=middle;resizable=0;points=[];" vertex="1" connectable="0" parent="4wCvddNxAp3TrLOBEBOn-21">
          <mxGeometry x="-0.1333" y="3" relative="1" as="geometry">
            <mxPoint x="7" y="4" as="offset" />
          </mxGeometry>
        </mxCell>
        <mxCell id="4wCvddNxAp3TrLOBEBOn-18" value="x0 = 2;&lt;div&gt;x1 = 2;&lt;/div&gt;" style="whiteSpace=wrap;html=1;" vertex="1" parent="WIyWlLk6GJQsqaUBKTNV-1">
          <mxGeometry x="360" y="1790" width="100" height="40" as="geometry" />
        </mxCell>
        <mxCell id="4wCvddNxAp3TrLOBEBOn-20" value="Конец" style="ellipse;whiteSpace=wrap;html=1;" vertex="1" parent="WIyWlLk6GJQsqaUBKTNV-1">
          <mxGeometry x="370" y="1890" width="80" height="70" as="geometry" />
        </mxCell>
        <mxCell id="4wCvddNxAp3TrLOBEBOn-29" value="" style="endArrow=classic;html=1;rounded=0;entryX=0.5;entryY=0;entryDx=0;entryDy=0;" edge="1" parent="WIyWlLk6GJQsqaUBKTNV-1" target="4wCvddNxAp3TrLOBEBOn-14">
          <mxGeometry width="50" height="50" relative="1" as="geometry">
            <mxPoint x="410" y="1520" as="sourcePoint" />
            <mxPoint x="430" y="1550" as="targetPoint" />
          </mxGeometry>
        </mxCell>
      </root>
    </mxGraphModel>
  </diagram>
</mxfile>
